<svg xmlns="http://www.w3.org/2000/svg" viewBox="0 0 253.7 177.1">
  <defs>
    <style>
      .cls-1 {
        fill: #f9a789;
      }

      .cls-2, .cls-25 {
        fill: #ed8472;
      }

      .cls-3 {
        fill: #45aac0;
      }

      .cls-4 {
        opacity: 0.26;
      }

      .cls-5 {
        fill: #5fc2cf;
      }

      .cls-6 {
        fill: #377aa1;
        opacity: 0.76;
      }

      .cls-21, .cls-25, .cls-6, .cls-9 {
        isolation: isolate;
      }

      .cls-7 {
        fill: #caebeb;
      }

      .cls-8 {
        fill: #3a86a8;
      }

      .cls-9 {
        fill: #d9675f;
      }

      .cls-23, .cls-25, .cls-9 {
        opacity: 0.75;
      }

      .cls-10 {
        fill: #b84954;
      }

      .cls-11 {
        fill: #7b3349;
      }

      .cls-12 {
        fill: #9e6570;
      }

      .cls-13 {
        fill: #a85162;
      }

      .cls-14 {
        fill: #242940;
      }

      .cls-15 {
        fill: #df6e64;
      }

      .cls-16, .cls-24, .cls-26 {
        fill: none;
        stroke-linecap: round;
        stroke-miterlimit: 10;
      }

      .cls-16 {
        stroke: #df6e64;
      }

      .cls-16, .cls-26 {
        stroke-width: 2px;
      }

      .cls-17 {
        fill: #fff;
      }

      .cls-18 {
        fill: #17192e;
      }

      .cls-19 {
        fill: #f18d77;
      }

      .cls-20 {
        fill: #fdd16a;
      }

      .cls-21, .cls-22 {
        fill: #f5ad5b;
      }

      .cls-21 {
        opacity: 0.57;
      }

      .cls-24 {
        stroke: #d16f45;
      }

      .cls-26 {
        stroke: #df6d64;
      }

      .cls-27 {
        fill: #3c4a66;
      }
    </style>
  </defs>
  <g id="Capa_3" data-name="Capa 3">
    <g>
      <g>
        <g>
          <path class="cls-1" d="M135.8,176.9c-42.3.2-92.7.2-135,0,6.2-39.5,2.5-53,48.5-59.8h0c.7-3.9,2-12.5,2.7-16.6,8.7-.3,23.9-.3,32.6,0L87,115.6l.2,1v.5C133.5,124,129.5,137.4,135.8,176.9Z"/>
          <path class="cls-2" d="M87,115.6c-17.9,2.1-30.7-2.3-36.6-5.1L52,100.4l15.1-.3h2.4l15.1.3Z"/>
        </g>
        <g>
          <path class="cls-3" d="M135.8,176.9H107.2c-35.2.1-73.3.1-106.4-.1,6.2-39.5,2.5-53,48.5-59.8h0l19.1,16.1,18.8-16.5v.5c13.5,2,22.7,4.6,29.1,8.2C132,134.1,131.4,148.9,135.8,176.9Z"/>
          <g class="cls-4">
            <path class="cls-5" d="M135.8,176.9H107.2V153.2a47.3,47.3,0,0,1,9.2-27.9C132,134.1,131.4,148.9,135.8,176.9Z"/>
            <path class="cls-5" d="M.8,176.9H29.4V153.2a47.3,47.3,0,0,0-9.2-27.9C4.6,134.1,5.2,148.9.8,176.9Z"/>
          </g>
          <g>
            <g>
              <polygon class="cls-6" points="62.3 127.8 68.5 133 68.7 156.4 62.2 156.4 62.3 127.8"/>
              <g>
                <circle class="cls-7" cx="65.3" cy="139" r="1.9"/>
                <circle class="cls-7" cx="65.3" cy="149.3" r="1.9"/>
              </g>
            </g>
            <g>
              <path class="cls-5" d="M68.4,132.9l-18.6-18-1.5-.2a11.4,11.4,0,0,0-9.5,3.6h0l2.4,14.8,5.1-3a10.9,10.9,0,0,1,8.8-1.1Z"/>
              <path class="cls-5" d="M68.4,132.9l18.6-18,1.5-.2a11.5,11.5,0,0,1,9.5,3.6h0l-2.4,14.8-2.3-1.4a18.9,18.9,0,0,0-14.7-1.8Z"/>
            </g>
            <path class="cls-8" d="M81.2,159.2v-1.9a.9.9,0,0,1,1-.9h20.5a1,1,0,0,1,1,.9v1.9a.9.9,0,0,1-1,.9H82.2A1,1,0,0,1,81.2,159.2Z"/>
          </g>
        </g>
      </g>
      <g>
        <g>
          <g>
            <path class="cls-2" d="M101.1,65.2c6-2,12.2.3,13.7,5.1s-2.1,10.2-8.1,12.2S94.5,82.1,93,77.3,95.1,67.1,101.1,65.2Z"/>
            <path class="cls-9" d="M104,69.4c3.8-.9,7.4.8,8.1,3.8s-1.9,6.1-5.7,6.9-7.4-.8-8.1-3.8S100.1,70.2,104,69.4Z"/>
            <path class="cls-10" d="M110.4,70.5a9.7,9.7,0,0,0-6.1-2,9.4,9.4,0,0,0-5.9,2.6l.3,1.7a9.9,9.9,0,0,1,5.7-3.2A11.4,11.4,0,0,1,110.4,70.5Z"/>
          </g>
          <g>
            <ellipse class="cls-2" cx="31.5" cy="73.8" rx="9.1" ry="11.5" transform="translate(-48.4 81.2) rotate(-72.1)"/>
            <path class="cls-9" d="M23.3,73.1c.7-2.9,4.4-4.6,8.2-3.8s6.3,4,5.7,7S32.8,81,29,80.1,22.7,76.1,23.3,73.1Z"/>
            <path class="cls-10" d="M25.1,70.5a9.5,9.5,0,0,1,6.1-2A9.4,9.4,0,0,1,37,71.1a11.1,11.1,0,0,0-.2,1.7A10.2,10.2,0,0,0,31,69.6,11.2,11.2,0,0,0,25.1,70.5Z"/>
          </g>
        </g>
        <path class="cls-1" d="M103.7,62.3c0,23.6-16.1,47.2-36,47.2a25.4,25.4,0,0,1-8.3-1.4c-15.9-5.4-27.6-25.6-27.6-45.8h0c0-23.5,16.1-38,35.9-38S103.7,38.8,103.7,62.3Z"/>
        <g>
          <path class="cls-11" d="M112.7,31.5a23.4,23.4,0,0,0-6.8,2.7c2.9,1,5.8,4.9,6.5,10a7.5,7.5,0,0,0-5.6.3h-.2c.2,8.3-1.3,21.4-4.1,29.3,0-5.5-1.5-10.2-3.2-15.1s-3.1-7.4-3.6-14.4h0c-19.7,0-36.6-.6-55.2.9h0c-.3,7.2-2.1,8.8-4,13A39.8,39.8,0,0,0,33,74.6c-3.1-7.3-3.5-29.5-3.5-29.5s-3.7-3.6-8.1-3.3c1.3-2.9,5.6-6.2,9.4-5.4-.4-3.1-3.9-7.3-7.6-8.9,6.1-1.5,9.3.5,11.7,4a24.4,24.4,0,0,1,3.7-8.2c12.2-17,46.2-19.5,67.6-2.8a11.3,11.3,0,0,0-7.3,3.6c4.8-.5,9.5.6,13.9,7.4Z"/>
          <path class="cls-12" d="M106.6,44.5c.2,8.3-1.3,21.4-4.1,29.3,0-5.6-1.5-10.2-3.2-15.1s-3.1-7.4-3.6-14.4h.1l11,.3Z"/>
          <path class="cls-12" d="M40.5,45.3c-.3,7.2-2,8.9-4,13a39.8,39.8,0,0,0-3.4,16.3c-3.2-7.3-4.3-19.5-3.6-29.4Z"/>
          <path class="cls-13" d="M112.8,31.5h-.1a31.1,31.1,0,0,0-25.9-4.9,16.9,16.9,0,0,1,10.3-6.5,66,66,0,0,0-26.4-2.9,23.1,23.1,0,0,1,12.1-2.6c-14.7-4.7-32-1.2-44.1,8.7,12.1-17,46.1-19.5,67.5-2.8a11.3,11.3,0,0,0-7.3,3.6C103.7,23.6,108.4,24.7,112.8,31.5Z"/>
        </g>
        <g>
          <g>
            <path class="cls-11" d="M58.8,62.1a12.4,12.4,0,0,0-18.3,1.3A9.1,9.1,0,0,1,49,54.5,9.3,9.3,0,0,1,58.8,62.1Z"/>
            <path class="cls-11" d="M76.7,62.1a11.6,11.6,0,0,1,9.4-3.4,11.7,11.7,0,0,1,8.8,4.7,9.2,9.2,0,0,0-18.2-1.3Z"/>
          </g>
          <g>
            <circle class="cls-14" cx="53.1" cy="70.4" r="2.2"/>
            <circle class="cls-14" cx="81.9" cy="70.4" r="2.2"/>
          </g>
          <path class="cls-15" d="M65.1,96.6a19.7,19.7,0,0,0,6.4.4,3.9,3.9,0,0,1-3.3,1.9A3.3,3.3,0,0,1,65.1,96.6Z"/>
          <path class="cls-16" d="M65.6,69.5a11.3,11.3,0,0,1-.3,8.3l1.5,5.4"/>
          <path class="cls-17" d="M56.5,87.7a54,54,0,0,0,24.6-1.2,3.9,3.9,0,0,1-1.3,4,9.5,9.5,0,0,1-4,1.7,33.4,33.4,0,0,1-12.6.7,10.8,10.8,0,0,1-5-1.5C56.7,90.4,55.6,88.8,56.5,87.7Z"/>
        </g>
      </g>
    </g>
    <g>
      <g>
        <path class="cls-14" d="M142.6,76.2s-.3,15.6-4.4,29.3-7.3,26.1.2,33,31.9-5.1,31.9-5.1l12.4-30.5L160.6,70Z"/>
        <path class="cls-14" d="M232.5,114.5s6.6,9.2,3.8,20.8l-41.3-12L173.5,39.8l-4.2-16.4-.9-3.5,1.2-.8c5.3-3.7,27.3-16.5,46.8.9,17.6,15.8,17.7,38.5,15.2,49.5-1.6,6.9-4.3,14.8-5.3,21.5-.6,4.1-.5,7.7.8,10.4,3.4,7.2,11,12.2,14.7,11.7C241.8,113.1,236.5,116.6,232.5,114.5Z"/>
        <path class="cls-18" d="M152.5,77.8s.8,16.3-4.9,28-10.7,24.1-5,33.1S219,138,219,138l3.3-25.5-2.2-27.9Z"/>
      </g>
      <g>
        <path class="cls-19" d="M253.7,177c-44.5.3-90.6.2-135,0,2.3-35.6,12-50.6,52.9-59.8.2-1.4.5-3,.7-4.7.7-4.2,1.4-8.9,1.9-11.9,8.8-.4,16.9-.4,25.7,0,.3,1.8,1.1,7.2,1.9,11.7.3,1.9.5,3.6.7,4.9C244,126.9,251.5,142.3,253.7,177Z"/>
        <g>
          <g>
            <path class="cls-20" d="M253.7,177h-135c1.7-26.2,5.3-40.9,23.2-50.5,6.5-3.5,14.9-6.3,25.7-8.7h.1c.1-.8,0-3.3,0-5.5a2.2,2.2,0,0,1,2.9-2c10.2,3.8,22.5,3.4,33.1-.7a1.7,1.7,0,0,1,2.3,1.6c.1,2.1.1,4.9.2,6.1v.4c10.3,2.4,18.2,5.1,24.4,8.4C249.5,135.9,252.1,150.9,253.7,177Z"/>
            <path class="cls-21" d="M146.9,142.5v34.6H118.7c1.7-26.2,5.3-40.9,23.2-50.5A27.6,27.6,0,0,1,146.9,142.5Z"/>
            <path class="cls-21" d="M253.7,177H225.3V142.5a27.6,27.6,0,0,1,5.3-16.5C249.5,135.9,252.1,150.9,253.7,177Z"/>
          </g>
          <g>
            <path class="cls-22" d="M206.2,117.2l-.2.3c-22.2,11.8-38.3.3-38.3.3h0c.1-.8,0-3.3,0-5.5a2.1,2.1,0,0,1,2.9-2c10.2,3.8,22.5,3.4,33.1-.7a1.7,1.7,0,0,1,2.3,1.6C206.1,113.2,206.1,116,206.2,117.2Z"/>
            <g class="cls-23">
              <path class="cls-24" d="M186.8,114.1v7"/>
              <path class="cls-24" d="M195.3,113.5V120"/>
              <path class="cls-24" d="M203.2,111.7c.1,2.1.2,4.2.2,6.2"/>
              <path class="cls-24" d="M170.4,112.1c-.1,2.1-.1,4.1-.1,6.2"/>
              <path class="cls-24" d="M177.6,113.6l-.2,6.2"/>
            </g>
          </g>
        </g>
      </g>
      <g>
        <ellipse class="cls-1" cx="148.7" cy="75.4" rx="9.1" ry="11.5" transform="translate(31.3 193.8) rotate(-72.1)"/>
        <path class="cls-25" d="M140.5,74.7c.7-2.9,4.3-4.6,8.1-3.8s6.4,4,5.7,7-4.3,4.7-8.1,3.8S139.8,77.7,140.5,74.7Z"/>
        <path class="cls-10" d="M142.2,72.1a9.5,9.5,0,0,1,6.1-2,9.4,9.4,0,0,1,5.9,2.6l-.3,1.7a9.9,9.9,0,0,0-5.7-3.2A11.4,11.4,0,0,0,142.2,72.1Z"/>
      </g>
      <path class="cls-1" d="M221.6,62.4c0,23.6-16.1,47.3-36,47.3a23.9,23.9,0,0,1-8.3-1.5c-15.8-5.4-27.6-25.6-27.6-45.8h0c.1-23.5,16.1-38,35.9-38S221.6,38.9,221.6,62.4Z"/>
      <g>
        <g>
          <path class="cls-14" d="M178.3,60.1a9.9,9.9,0,0,0-8.8-4.4,11.7,11.7,0,0,0-8.7,5.8C165.6,59.3,170.8,58.5,178.3,60.1Z"/>
          <path class="cls-14" d="M192.8,60a10.1,10.1,0,0,1,8.9-4.3c3.4.3,6.6,2.6,8.6,5.9C205.6,59.3,200.4,58.5,192.8,60Z"/>
        </g>
        <g>
          <circle class="cls-14" cx="171.8" cy="71.4" r="2.2"/>
          <circle class="cls-14" cx="200.6" cy="71.4" r="2.2"/>
        </g>
        <g>
          <path class="cls-26" d="M188.4,69.1a11.9,11.9,0,0,0,.4,8.3l-1.5,5.4"/>
          <path class="cls-2" d="M188.8,95.8a19.1,19.1,0,0,1-6.3.2,3.8,3.8,0,0,0,3.2,2A3.3,3.3,0,0,0,188.8,95.8Z"/>
          <path class="cls-26" d="M193.5,88.7s-8.3,4.4-15.7-1.8"/>
        </g>
      </g>
      <g>
        <path class="cls-14" d="M176.3,35.7a11.6,11.6,0,0,1-2.8,4.1c-5.2,5.5-15.6,11.1-19,18.8A44.4,44.4,0,0,0,151,74.5c-1.5-4.2-3.1-8.4-3.1-8.4l-5.2.9c-.3-9-.8-28,7.2-39.3.1-.1.1-.2.2-.2,5.8-8.1,13.9-9,19.5-8.4a26.3,26.3,0,0,1,6.6,1.5,17.1,17.1,0,0,1,.6,2.2C177.4,25.8,178,31,176.3,35.7Z"/>
        <path class="cls-14" d="M225.5,118.9c-1.4-7.7-.6-19.8.4-31.1a17.4,17.4,0,0,1-.2-6,57.2,57.2,0,0,1,1.5-16.2c-1.5-10-7.1-27.2-15.7-38.7a69.3,69.3,0,0,0-13.8-3.2,69.2,69.2,0,0,0-11.1-.9c-3,.1-6,.6-9,.5a57.5,57.5,0,0,0-4.3,5.1s2.3,6.7,11.6,6.7,20.6,1.2,28.4,11.6c10.4,14-7.9,64.5-.1,77.3a19.6,19.6,0,0,0,21.1,9.2S227.6,130.8,225.5,118.9Z"/>
        <path class="cls-27" d="M231.6,69.5c-1.6,6.9-4.3,14.8-5.3,21.5-2.2-9,3-21.7,3.4-30S227.6,33.1,212,23.2C189.2,8.9,172.8,25,172.8,25c-6.1-4.6-17.1-2.5-22.7,2.4,5.9-8,13.9-8.9,19.5-8.4,5.4-3.6,27.3-16.4,46.8,1C234,35.8,234.1,58.5,231.6,69.5Z"/>
      </g>
    </g>
  </g>
</svg>
